<mxfile host="app.diagrams.net" modified="2020-12-17T07:36:26.519Z" agent="5.0 (Windows NT 10.0; Win64; x64) AppleWebKit/537.36 (KHTML, like Gecko) Chrome/74.0.3729.131 Safari/537.36" etag="vGoBAihxa1ZNQ8z1WTMa" version="14.0.1" type="github">
  <diagram id="XZ8CH964tO4OAbT-fF9e" name="第 1 页">
    <mxGraphModel dx="4748" dy="1337" grid="1" gridSize="10" guides="1" tooltips="1" connect="1" arrows="1" fold="1" page="1" pageScale="1" pageWidth="827" pageHeight="1169" math="0" shadow="0">
      <root>
        <mxCell id="0" />
        <mxCell id="1" parent="0" />
        <mxCell id="HbIZkuhC3pRowiAG9ARc-272" value="" style="rounded=1;whiteSpace=wrap;html=1;strokeWidth=1;" vertex="1" parent="1">
          <mxGeometry x="-2200" y="180" width="530" height="290" as="geometry" />
        </mxCell>
        <mxCell id="HbIZkuhC3pRowiAG9ARc-271" value="" style="rounded=1;whiteSpace=wrap;html=1;strokeWidth=1;" vertex="1" parent="1">
          <mxGeometry x="-2200" y="861" width="530" height="290" as="geometry" />
        </mxCell>
        <mxCell id="HbIZkuhC3pRowiAG9ARc-270" value="" style="rounded=1;whiteSpace=wrap;html=1;strokeWidth=1;" vertex="1" parent="1">
          <mxGeometry x="-2200" y="537" width="530" height="290" as="geometry" />
        </mxCell>
        <mxCell id="HbIZkuhC3pRowiAG9ARc-265" value="" style="rounded=1;whiteSpace=wrap;html=1;" vertex="1" parent="1">
          <mxGeometry x="-387.07" y="985" width="200" height="155" as="geometry" />
        </mxCell>
        <mxCell id="HbIZkuhC3pRowiAG9ARc-264" value="" style="rounded=1;whiteSpace=wrap;html=1;" vertex="1" parent="1">
          <mxGeometry x="-627.07" y="985" width="200" height="155" as="geometry" />
        </mxCell>
        <mxCell id="HbIZkuhC3pRowiAG9ARc-175" value="" style="rounded=1;whiteSpace=wrap;html=1;" vertex="1" parent="1">
          <mxGeometry x="-1880" y="1420" width="420" height="160" as="geometry" />
        </mxCell>
        <mxCell id="HbIZkuhC3pRowiAG9ARc-172" value="" style="rounded=1;whiteSpace=wrap;html=1;" vertex="1" parent="1">
          <mxGeometry x="-1276.92" y="1405" width="420" height="160" as="geometry" />
        </mxCell>
        <mxCell id="HbIZkuhC3pRowiAG9ARc-171" value="" style="rounded=1;whiteSpace=wrap;html=1;" vertex="1" parent="1">
          <mxGeometry x="-626" y="1400" width="420" height="160" as="geometry" />
        </mxCell>
        <mxCell id="HbIZkuhC3pRowiAG9ARc-109" value="" style="rounded=1;whiteSpace=wrap;html=1;" vertex="1" parent="1">
          <mxGeometry x="-1294.01" y="630" width="440" height="160" as="geometry" />
        </mxCell>
        <mxCell id="HbIZkuhC3pRowiAG9ARc-74" value="" style="outlineConnect=0;fontColor=#232F3E;gradientColor=none;fillColor=#232F3E;strokeColor=none;dashed=0;verticalLabelPosition=bottom;verticalAlign=top;align=center;html=1;fontSize=12;fontStyle=0;aspect=fixed;pointerEvents=1;shape=mxgraph.aws4.traditional_server;" vertex="1" parent="1">
          <mxGeometry x="-1845.37" y="195" width="45" height="78" as="geometry" />
        </mxCell>
        <mxCell id="HbIZkuhC3pRowiAG9ARc-207" value="" style="edgeStyle=orthogonalEdgeStyle;rounded=0;orthogonalLoop=1;jettySize=auto;html=1;" edge="1" parent="1" source="HbIZkuhC3pRowiAG9ARc-78" target="HbIZkuhC3pRowiAG9ARc-79">
          <mxGeometry relative="1" as="geometry" />
        </mxCell>
        <mxCell id="HbIZkuhC3pRowiAG9ARc-78" value="" style="outlineConnect=0;fontColor=#232F3E;gradientColor=none;fillColor=#232F3E;strokeColor=none;dashed=0;verticalLabelPosition=bottom;verticalAlign=top;align=center;html=1;fontSize=12;fontStyle=0;aspect=fixed;pointerEvents=1;shape=mxgraph.aws4.traditional_server;" vertex="1" parent="1">
          <mxGeometry x="-1845.37" y="375" width="45" height="78" as="geometry" />
        </mxCell>
        <mxCell id="HbIZkuhC3pRowiAG9ARc-79" value="&lt;span style=&quot;font-family: &amp;#34;verdana&amp;#34; ; text-align: left&quot;&gt;Logstash&lt;/span&gt;" style="rounded=1;whiteSpace=wrap;html=1;fillColor=#dae8fc;strokeColor=#6c8ebf;" vertex="1" parent="1">
          <mxGeometry x="-1770" y="394" width="72.5" height="40" as="geometry" />
        </mxCell>
        <mxCell id="HbIZkuhC3pRowiAG9ARc-80" value="&lt;span style=&quot;font-family: &amp;#34;verdana&amp;#34; ; text-align: left&quot;&gt;Logstash&lt;/span&gt;" style="rounded=1;whiteSpace=wrap;html=1;fillColor=#dae8fc;strokeColor=#6c8ebf;" vertex="1" parent="1">
          <mxGeometry x="-1770" y="214" width="72.5" height="40" as="geometry" />
        </mxCell>
        <mxCell id="HbIZkuhC3pRowiAG9ARc-81" value="&lt;span style=&quot;font-family: &amp;#34;verdana&amp;#34; ; text-align: left&quot;&gt;Logstash&lt;/span&gt;" style="rounded=1;whiteSpace=wrap;html=1;fillColor=#dae8fc;strokeColor=#6c8ebf;" vertex="1" parent="1">
          <mxGeometry x="-1770" y="305" width="72.5" height="40" as="geometry" />
        </mxCell>
        <mxCell id="HbIZkuhC3pRowiAG9ARc-205" value="" style="edgeStyle=orthogonalEdgeStyle;rounded=0;orthogonalLoop=1;jettySize=auto;html=1;" edge="1" parent="1" source="HbIZkuhC3pRowiAG9ARc-82" target="HbIZkuhC3pRowiAG9ARc-80">
          <mxGeometry relative="1" as="geometry" />
        </mxCell>
        <mxCell id="HbIZkuhC3pRowiAG9ARc-82" value="" style="outlineConnect=0;fontColor=#232F3E;gradientColor=none;fillColor=#232F3E;strokeColor=none;dashed=0;verticalLabelPosition=bottom;verticalAlign=top;align=center;html=1;fontSize=12;fontStyle=0;aspect=fixed;pointerEvents=1;shape=mxgraph.aws4.traditional_server;" vertex="1" parent="1">
          <mxGeometry x="-1845.37" y="195" width="45" height="78" as="geometry" />
        </mxCell>
        <mxCell id="HbIZkuhC3pRowiAG9ARc-206" value="" style="edgeStyle=orthogonalEdgeStyle;rounded=0;orthogonalLoop=1;jettySize=auto;html=1;" edge="1" parent="1" source="HbIZkuhC3pRowiAG9ARc-83" target="HbIZkuhC3pRowiAG9ARc-81">
          <mxGeometry relative="1" as="geometry" />
        </mxCell>
        <mxCell id="HbIZkuhC3pRowiAG9ARc-83" value="" style="outlineConnect=0;fontColor=#232F3E;gradientColor=none;fillColor=#232F3E;strokeColor=none;dashed=0;verticalLabelPosition=bottom;verticalAlign=top;align=center;html=1;fontSize=12;fontStyle=0;aspect=fixed;pointerEvents=1;shape=mxgraph.aws4.traditional_server;" vertex="1" parent="1">
          <mxGeometry x="-1845.37" y="286" width="45" height="78" as="geometry" />
        </mxCell>
        <mxCell id="HbIZkuhC3pRowiAG9ARc-84" value="&lt;h1&gt;Logstash 收集方式&amp;nbsp;&lt;/h1&gt;&lt;p&gt;解析好的数据发送到ES&lt;/p&gt;" style="text;html=1;strokeColor=none;fillColor=none;spacing=5;spacingTop=-20;whiteSpace=wrap;overflow=hidden;rounded=0;" vertex="1" parent="1">
          <mxGeometry x="-2146.87" y="286" width="241.88" height="70" as="geometry" />
        </mxCell>
        <mxCell id="HbIZkuhC3pRowiAG9ARc-107" value="" style="shape=image;verticalLabelPosition=bottom;labelBackgroundColor=#ffffff;verticalAlign=top;aspect=fixed;imageAspect=0;image=data:image/png,iVBORw0KGgoAAAANSUhEUgAAA88AAAEjCAYAAAAMkjMTAAAAGXRFWHRTb2Z0d2FyZQBBZG9iZSBJbWFnZVJlYWR5ccllPAAAQIxJREFUeNrs3e1127i2gOE9WfN/dCsYpgJrKghTQZQKQlcQpQLLFTipQE4FciqQUoHsCqypQD4V5BrH4AnDkBI/sEGAfJ+1uGaSSBQJgiA2AAIiAAAAAAAAAAAAAAAAAAAAAABFf0R0rOnzNn/eLp63pLCdcihsD8/b/fO247IDAAAAAMbCBMbL523zvP1wvG3svhOSGQAAAAAQm9nzlj1ve4WAuW7b29+ckfwAAAAAgNCD5tXzdvQYNJe3oz0GgmgAAAAAAEEzQTQAAAAAIBZZYEFzVRCdcZkAAAAAAENInrdtwEFzedsKE4sBAAAAADxaSNi9zad6oRdcPgAAAACAtpsIg+bydsNlBAAAAABoMBNvxTRMu8kwbiYTAwAAAAA4DZx9rtnsc21oAmgAAAAAAIEzATQAAAAAgMCZABoAAAAAMKAxvePc5B1oAAAAAABaGcOs2szCDQAAAABQs5hg4JxvrAMNAAAAADgred6OEw6ejzYNAAAAAACoNaX3nHn/GQAAAADQWkbg/L8tIzsAAAAAwLj84WAfZqmmR2HJptzT8/ba/hcAAAAAMAJ/OtjHcsDA+f55OzxvD6W/v5CX94/nAxzTzKbJiuwFAAAAAMgDRd+ThG3kZWj0rOHxZfY7vicPoyceAAAAAPBfK48B6Vr6zWad2H34Ot4V2QMAAAAA4KvXeS9uh1/P7T7pfQYAAAAAqMs8BKA3isd/I8y8DQAAAABQpt176yPw1G4A2JNNAAAAAGC6EhlPj612AJ2QXQAAAABgmpYS51DtOppDuJdkFwAAAACYJq2ln4Yc5qw1DH1DdgEAAACAadLqpZ0PeE5zxfMCAAAAAExMKnrrOA9Nax3olGwDAAAAANOi9b5zEsC5JcJ7zwAAAACAklcdvnOhcBx3z9shgPQ42GNx7YKsBgAAAADTCp4TheP4FlCaaBxLQlYDAAAAgGl5FPfDmmcBnd9M4fweyTYAAAAAMC1jWp6qjsayVQAAAACASL0K4BgOAabLgawBAAAAAAgpeH4IMF0eyBoAAAAAgK7B84wkAwAAAAAQPEMLDQ8AAAAAMJHg+Ykk64y0AwAAAICJBM8aLgJMlwuyBgAAAAAgpOA5CTBdErIGAAAAAKCPR3G/BnJI7wPPFM7vkWwDAAAAAPHq0vN8UDiORUBponEsB7IaAAAAABA89/UuoDTROBaCZwAAAACYWPD8oHAcprc3CSA9EtHpeX4gqwEAAADAtILne6VjuQogPbSO4Z6sBgAAAADT80Npmw94TnPF8wIAAAAATNBGKcjcD3hOe6Vz2pBdAAAAACBuXdd5/q50PKb392aAdLgRvV7v72QzAAAAAIjbHx2/l4ju2sWXz9utpzTInre14v5fS7yzbafy0qhwYa95vp1yKGxmojTzvveOWw0AAADAVGkNc863zFPgrHkO+8iuqQmMl6IzLH9j951w6wAAAACYEu3A02yaQ7hvPBx/FsF1nNnj3HtIj2KjQmZ/GwAAAABGzQQ+R0+Blsv3keeeAsVj4MGhObaVp2t4Ko1WBNEAAAAAxm7lMdAy7yUnPY41sfvwdbwrgmaCaAAAAADIAzHfQZh5dzZrGGjlQ5I34j8YDDEQzAILmqvSLeO2AgAAABCaPxzsY/W8XQ10/GYm54O8zOpclM8OPR/ouK4lrJ5nkxam1z2NJF/u5GXG9QO3KAAAAICxGKL3OeQttF7nRaTX52iPHQAAAABGIyNoDnKG7ZsRpOcNtxcAAACAMdkSOP83DUIwG9n12AqTiQEAAAAYiUSmPXz7KP1mA3cZOO9HmL57AmgAAAAAY7GYcPAcwvu5Yw2cCaABAAAAjM4Y3rON8b3csQfOBNAAAAAARmdK7z9vSfPJpjkAAAAA9EIvqF/09gMAAAAAATSB8wm8Zw4AAAAABNAEzickwgznCbcZAAAAgLEE0Kw5rIO1tXn/GQAAAMDIjOG93JDes80InP+3ZdxeAAAAADT94fn3zDuqa4lvqaGn5+3yebsL5HhM+j0KSzYVr89r+18A4Ulr/v5gNwAAgOD96fn3TPB5bwPoNJI02tnAOaQK3nLAwPnepsVD6e8v5OX94/kAxzSzabLilgYGldiy/U3h/5uWKztbrpjnBA1hAAAABZmEPdnVUcIcDjwbIN02Ni1mDY8vs9/xfb3oiQeGCZhN45XLySH3dp8JyQsAAPAz0FoFFkQf7TGFGoitPKbFumflNbH78HW8q8CuVRrhuYW4/FdKw0iwQbOP+3vboxxiYkIAAODMH4EcRz7s9uOAlWQzTPDL8/ZZwh0y6OtdZzOE8tL+14W5rWTPPVzDkN59Th1Wuq89BNAmQNl3TMPZiev71DMvmbzzr8PzT+y1uSgdsznGc8OGk1Igt+uQNvcV+086BIi7gfK1OZ8rW2b78rbj+f5w9Ps7ewwAAABBBYeZ+F0bei/NhyQPLZO4ZxT3MeN6FtD1SiWunud1jzRscq4baT/XQWK/++goaG76OkHdqItV6XNd0iZtsN8m2xDm9lr4HhGUdjxeep4BAMAkmIrrUnTend1InO/TaTcq+Ag8tRsA9gTPne+3Hz0C1VQpn60d5c+VozSfcvCsfe8SPAMAgKD9GfCxHeRlCPXnQiXIhT8ivVYmuNEc9myGad96OI/bQlCkYW7T6sDt3cpVKa+Zd5/7LM12b/czqwmInxrsPykFzB875tF1ReCdDyX/bv/8lw3Q5mSF2sB5TTIAAADEwVUPQqyWEudQ7TqaQ7iXgVyzVOLoea6awX3b81zTUhC8Kv1Gk97tlfTvgSxPaHVuQsCk8J1Vg2PqmzZ99uszcB56Ise047HT8wwAAAieJxg8ay39NOQwZ61h6BuC51ZWNb8573GuVcHOokVAVLckW5tru6gInJue01yqh4lPLXheSBirIBA8AwCAwb0iCaKhtYTQ5YDndBlZWo2RCVI/1vzbR8e/ZYZpH0pBZZ2lVPcOm2ubNDyv4jBjM0zbzJbcdNZv87nbieeNRBiqDQAAQPAcmVRpv7fibjmqLjQDlJRs00hWClKvS/+WOP69Q8PPfSzl0+L3rjqc1+XAeT1Ga2F9bQAAAILnyGhNYnQdwLldR5ZmY1MOUsvrnH8c4LpUBfRfT/x7lQ+F/zdB8x2XupVUaIACAAD4xZ8kQRQuFPZZHkI7lIM9lkUEaTY2JghNCn/+YgNnE0QvC5+5LgXUXZWHYu9qPndVkU8/l/7e7GtV8/2kFKR/VUzDVYPP/K2w34PoDiu/4vYAAACI15QnDNtKnGs6twniXJ9fCBP8pBL2hGGPNemVSPvZy8vnmhb+zQSy5dnVHxvmheJ+ijNnHzsei4tgWWPyq1VA+TuRMCYJY8IwAAAQFIZtxyFR2GdIw1jvIkmzMUlLaVQcPn8oXZMuQ7eLDT77igC8brK44nDrnfzaO/2l8P+zEw1A5aHhOy53K0y4BwAAUIFh29MMns07oE8Bnd+TPaZ5wGk2NlelYLkcYH4pBFGJDVRvHV3rTzUBbSq/9jB+rci3u8JnrmqOyeckV00C81mHvL1rcA9r+cDtAQAAELcpD9se6zrIRRrrWA8tlTCHbZePK6v5XHEd7n3PczXDrNdnGjWKvdV1w7rL6w4vGhyLy0aZlYx7neeZhDdkm2HbAAAgCPQ8T9NDoMfEcFE/isOwTU/woSY42RUCz7n9zK7hb5je5bx39CDnJ6ebl47hruaYnuw2K5zLXcVnyvtmmarmgb6m8qiXLr3yAAAABM+oxDqrcCmRXxspTP5q2qv2sUXwfC/t3jUuv1e9lOYTlZWD4/tSgP1OdGemHhPNZfHMNTjUlHGpvU4LyjwAABAqJgzDmFEJ/12fJYgWovMuudln1uP7VROa3ZWOm97NZt443p9pxPhHXoalH058xlwvM4nca/vfA5cCAAAQPKNL5ROkXQhBat/gW2ufWUVQf136s3nfmsaUZnnEJXMd7lves7c2iH4vDLcHAAAEzxjYBcc0SeUeWhOg/NFguy18x/Ww2vKSU7cNj+l1RQBddHjePhf+bHqety2OPZFpvoPvMnguX4O2TG+06bW+FBrCAAAAwfMgVqI3/HSKFeQxH9OYVAWph4bfLa+vvHR4XOV9XbcIzMprUc8q9nVfEUCnZ/Zt0mkv0xvq7foe/OJoP7dCDzQAAAhAyBOGJTbIfSNuZ4AtDhE1vRm75+27rYgfAk2Lg+OK7dwGGqH05mjMuHvg9v4tSJ11DGzK6yubQHXl6LoXe8Pb3oPFtajzxoHPpfv7rQ2Y56UA2pzTN/k5uZi5vy4knIa1JpO4vQ08eN5x2wEAAOgxFdsbeVnjdYi1RB/t74fW47RVONcsoPPLFM4vhHVZUwljnWcTWB57pk12Jv+UzzVtsM+V9F/L91HOrw0963gPrRocc5d8kDbY7xDrmKcyrnXWRVjnGQAAOBTCsO28x2hvN9NDlgx0LIn9/fxYMgljkqGDwj7fBZQP30WSZrEqv6d83WEft6U0dTFx2IfC/++kW0/lden+zSo+k/dAt5nF2RzL3cTyicuyjmHWAABgdIYctp2/O/lRwpwF1/Q+mxl6TU+0GR76WYYb5vygFFAlAQSZiehMzPTA7V0bZO467uOT/Doqozj0/1D6jUOD6/7VwTHdya+NbU9nGgBu5efrIHP5+QpDPnw7f4Xj/kRQ3VaTtNkFkEdcjrhhgi8AAABHQfNKfh1GGsN2tMc9RKCfKp3TOoD8sFY6tzSAc3N53VYUHVC2GmF+Zdg2AABwxvewbdPTbN5LvJL41lyd2eN+FLezDTexU9pvJsO+3z0XvXevd9zeAAAAAGILnk2QZN4hvokwaK4Kom/E71I2JsDUGgY5ZO+z1m/fcWsDAAAAiC14Xsk410zNGwRWir+RystwwbXoNTrkM5z7pjmr+XdubWBQB5IAAACgfXD5YwKb68aBRPTeBQ5h6apM+VySQO6BVHjnGfFYybjmHBDhnWcAAOCQVs/zwlY25hNJx7k9376zRueTqe3F/zrMa0+/mYnuUHEzS/KBWxsAAABA6MGzCf42Ev+7zV0C34107yFc2KB5yMnU8qW5tNyI/jvWX7itAQAAAITO91DjULc2AWLeaz3mYei+hvAfA2u0SYVh24jHShi2zbBtAABQy2XPs69hvzHIGgTQM/uZfUAVzXKwa44v6bGfpHCOPobwm17nJ7IfAAAAgFBNZWKwLj24Vcw60ceIzmNjGwSa9OrO7Gc3no8xtF5nEXqeEZeV0PNMzzMAAKj1p4N9mJ7FOUlZaW7T57IQTPXtzR3Cwm7m2PMJuR5Kn7mw5zVUXqDXGQAAAECwwTNDtc/L0yeR8IZnd20QmEv/mcVdMkHzZ7IaAAAAgBCD5xWBc+sAGjo+Cb3OAAAAABR1nTDM9DpekXwIwO55uyUZAAAAAIQWPOfv8QJDM73NlyQDAAAAAG1dhm2bwDmkWY1NAHVv///wvP37vP0tPyflmkt4szDDjUt7zQEAAAAgqOB5JcPPrG0C5W/yMlz3Xpq96zqzx50+b++E2cHHwEwQdkcyAAAAAAiNCTiHWmf4UV7WRnbVgzyz+3sU1qKOcYtlzdVUWOcZ8VgJ6zyzzjMAAKjV5p3nId5z3j1vb5+31/LS0+hqRuV8aaPXdv+7kVzPwwTyrBlt8J5bFwAAAECIwbPppfU51Plgg1ofge2u8FuxBp93tiHgH/n5/vdYA2dznViWCgAAAEBwwbMZ4uxzWaprGwjuPKfFzv7udUTX72CDyff2/5/sn8cYQBM4AwAAAAg6eHb5rvEpJigyPaergdNkZY8j5CDNHNsnqW5kyAPo3Yjy6Y7AGQAAAEDIwbMJmj96OI57GwiG0mMa2vEU5e9qfz4TXL8985lYfCZwBgAAABB68Oyj1/ku0OAoD0BDWQ5pJy894p9apJX57PtIA88ne+yfuE0BAAAAhBw8++h1vgs8uMsDuCED6IM9hq7vMt/ZoHsXUb7MGwpYxxkAAABA8MHzQnR7nU0geBlJOl2K/yHcJnDPJ0/rG0QebPB9KeG/y30pcc98DgAAAGBiwbNmr3M+JDqW4cS+j/fWBs0rpf1eB5b2xYaCW25LAAAAALEEz3PRXdc5xgmg8gBa0070e4ifbFAeQhBdDJpXwqRgAAAAACILnj8o/qYJlmJdh/hedNeBvhd/7yYXg2jfw9LzIfsEzQAAAACi9vi8/VDYHkmfoNMnkZcZ1jcK57ax+04mdB+lDtNvRbEEZSuH+TUN5Jxcnc+W7AEAAP6sCaC0ApzLkaTbpVJlKk/7w0DnZX73s/xcH9pUgM3w/YvCsSUN9pFvD+K3Nx0AAAAAvAXPC6Xf2o0oiMrPJVXY96IQvIZynsBYJHYzjUJmNYG/pbpB6PC8/SsvrxTc243XC4B+Zvbey+/Dv6R6fhVzrz0UnkPcfwCAYIPnN0q/dT2ytLtWCp7fBBQ8A2MIlhf2vkql3/J7+SiKb0KjEtA0WC7ef0mL7+YN+Vf2v4fS/UcwDQDw7o+KvzuK+/WdzUPv9QjT71HcD3E3FYL/I2uOgqksuhrebxprVh4quksP6fJZueJrziOTl4kPtVYNMGWaWX/9i7R7zSIVd41ut9LtFY+6fPTG8bH96zC9u57rD0e/b4K1tx7ujaXC87fM5FvtCSLN/fdO9EayPdnz+CrtGrISe2yu8sROAACTlojORFjLkabXUim9ErLiaILnWCYMMxX2vVJ+Lm6Zcvm1lpcGwB8et3WLe3Ylw0/K9SPCbehz9TFh2NpTXtUsQ1YD3H/bFvkjpjIZABCBhdLDbTbS9JoppdeCrEjw7LGiFnvgPPMUeDQJTM6VdQTPBM9jDJyHCJqrrtF8JGUyACBQ5XWeNYY4jnmij3wyIdfmZE14bADaeshzZob6W4X9mtEfj6Lbo91UZo9lSbZCy8BZO//eis5qF6nN81cyfCO5ORbTCHgj422wBwAEFjxfKPzGt5Gnocb5XZA1QeB8UmKPPbSK8swe05YKPEYcOBfzeRJYmi5tEE0jNABAPXjWqOztRp6GGudHpRsEzvVSWzlOA05fc2yPgR8jCJy7mNuyI+QRFoktIxgFAgBQDZ61hm2PGcO2QeD8uyelwDmTeHp183TOyHIYIHD+pBA4p+Kn0c2VG9F91xsAMPHg2XWF9EnGvxajxjnS84zYA+e3CoHzOtKKcKzHjXgDZxM0f3a8z0zifB0h1uMGAEQQPLt2P5F0vCcrgcD5l8DZ9T3hI+DQrsATQMNX4HxL/v1FSgANAHDhT5IAIHAmcPYWQD+RFQmcCZwHMRcasAAAPWn3PB8mko5UiEHgrBM4r2Rc7wzT80XgHFPgnI4s4OT+AwA4C54Thf3/O5F0fCArgcDZeeBsgo0rLiEInAcJnE2ZseHyAQBQHTwfFPb/90TS8W+yEgicnVfcb7iEIHAeJHCe2WOnpxYAgJrgWUMykXRMyEogcKbiDngMnLWWg8uPnSUTAQAoYcIwgMC5i3sbOGu8739FxR0EzmcDZ42GK7HHveASAgDgP3ieSgWYij4InN1In7el5zQ7PG87eZmjYVfzmcRub2za0iuOMQbOJl/7fl3iyd53D/acnmqOy9x3F7aM4P4DAATh+Lz9cLyN/SE3U0izI1lxFFKHeWLVMC/uFfJjcdsr39OPysdfvMduejQyLGyQ9GPALe147D8i3IY+122LwFk732o2jG08XtO1dO/hzudEOA6YJ1c84gAA24AqPVMMkNpW1EDwPKbAeeUpaF45PI+Zp+MmeA4/eI49cE7FX9CcOLz/lgMF0QTPAACVVuexP2A0Ks4sD0Lw3OY+GkPgPPNQAd4onkOi1Pjos2FyJeNrNPUVPMceOIuH/LtXPId8uDnBMwBAVXm2bY31it+NPA01zo91o9Gm0hjzO865pXJw/ul5e694DgebRtdkycmJ+R3nXKrc4HGrfA5PHu5xAAB+Y94/0mihHet7zzOl9GKm03FIRbeXYww9zvl5aPU6Hwe4nzKh5zkN5B7U7nkeQ4+ziG6vs+8JAOfiZxj3ikccAExPuedZq1U4G2n6aZ3XPVkTDQJO7R7nO9Hvcc7vI40APe+xu/N8bW7lZf1djJt2j7N5Drz28DyYKzZ2mPvgs+fr4mOkDAAA/6PRYvs40rTSmBmYmbbHIxWdXg4fPc7ryO+jEEZwZELP89C0ep61e5x9jPjQPpebga+9dg/0ikccAEzPq4q/2yn8TiLjm3U7FXczhmqnP8bDR4/zrfjrOZ0r3Ufm3eO7ga+VScfPZNnR8dHj7Kvn1JQnGo1M5t77NPB1uhdGgAAAPATP35V+62pkaad1Pt/JlphI4Gx8UNjnTsLpFfokvIZB4Bxm4Cw2cHbdw/0UUNBqgngasAAAqhKJZ5jhUFLFNEoCO8+lrTCaoK3J8NpH+9m1/W464XvJZT4xQyDHNFQ753rI9jGwe0hsYwfDtofhctj2mIZq5zSWpwxtwkutCQlXVBcBAFoV2rG9+zzW9ElswKtRodrYfScTuo80G1nGEDhrBJWhVmg1Ai+CZ3/Bs/Y2ROAsCkHlNtD7LyN4BgBouhEm2fBRwQxhgpWZrVho92qWK4qZjHcJs9iC5/VA6bMU973OoeaphOCZ4DmwwDmVaY0uc93oTfAMAPgfrWGG+TYnXU4+kH1UpGb2t3ysh3kq2PF1vgTP4c2Iu5FpVWZd9z4TPMcfPK8HLP9WMo1e51xG8AwA0KTZExlyD9GpYNNXoHkUvUlpQgiapxJEhx48ZwOnj+s8GHr+cd34RvAcd/C8HjhtXDdeLQK//1w/wwmeAQC/yGScQ9W6PnR9DmsuplHq+JqGFDT7bDQgeA4rcE4cn88mkjzhcugowXO8wfN6ZHnxGMn953L0B8EzAEzQqxP/ZpZ40FwuYx5IBaLpA3eIoebmN/NZXpOegUq+n5AbLGbyc2bvhNtTjVlG5jaA4Nmlb5Gk/R3Zb/JuZfilnGaO78FY8vU3sh8AQNNK9FvgNwEHdDPRmXna59DmhYTd23zqfBeR3z+p0OPsq2yZTTBPpAFfkzSQ9KbH2U/ZFFNZTc8zAEA1ePQReIU4hHuoodpNlrNqWlG5kfiC5pAmtBpb8JwFlDY3jsuPmBA8TzN4Dmmk1WKijVfGluAZANDVqzP/boZtf/FwHHMbFIYyC3dox1OUyEtv+PbE8c3svy9HkEeX9lxm3K69mHs5pKGVLu+t+8iuxY7sOElfR3r/HUT3FS/X7smKAACt4Nn47OnBmPf0rgZOk5XEMZlZao+z/B5zHjinI8qnKQG0k/trO9Jz+zey4z2QHSfJNHomIzyv2PLzv2RFAIBm8GwC52uPx3QlL72+voO/1P7uVWTXMLPHvSoESPMR5tU5AbSTNAxl6KjL6xhbTxKV92nK59AIoQz72+G+vkd2Heh5BgCoBs/GZ88PnMQGSj56UNPCbyURV8pM0H8caeBMAO1OJmG8++wynz5Fdg2eyIaTZfJ9CPM4JFwKAAD0gmdjiKU18sDW9KwuHQZNM7u/RxnfEOcpVD43JEMvQy29hhf0fE1bJuOYjyJWO5IAAOAjeDYVvuuBjjORl9Z607OavxedtgimZ/bzK/v9o91fQhaIUipxz8IdgjH14B+4nIjMjYyn0ZZgFAAwGX+2/LwJPt/JsL1Wc7vl7yY/yc+eHFOJNu8TXhQCg7kwzHeMTM+NedfujqToJH8//h+CZ2AQG3v/kX8BABhp8GxcSli9VnmvMqbHDD++p/LZWT6B2OUIzoOh0IhNPoHYW4n7PXgapwEAk/Gqw3fuR1DZxngqn2uSoZdM4n//kso7YhXKBGJ9zwEAAILnE8xQ2WuSDwFIJYzZo2M2pvcvY5CQBCgw5RcTiHH/AQBGHDwbq+ftliRsxKST6a1niRq94I/ex342niuVO4f7iu3aU3lHVRmWevw9l685/MX9BwCYij97fj8fvp2RlGcDZ8P02JsehquIzyd/x/ih9PcXtlIyxBC+fOmxFdmtVxrG+v7lXOKaOO4vshsq+JxA7D+O77/YyjoAAAZlln/6wfbbtq9Jr8RWlGI5j41tIGlS6ZjZz/o+v2OAlaI0wjzr6x3yTYTH7MrW0Xmnjo9r5fCapIGkdYzPDB/lmMtr/RjZ/efq3FdU/QBgel452o9pLb8lOX9xK/XLAB2et/fy0st3CPwcXttjNf/fpEfyyX72vf2ur3yR9z6P3b1NWy2Zp3R8cLiv2Hq+mGApXk+iOzojnwFf287hvhKJqzf3DdkYABAK89Cnx7l95ccEK0cJq/fDZQV/Ln5GJ4TW+5yKXq/USjktU+W0WTo+3lgq7/OAr9FK6Hk+V77Mle5t372ac8fHu4ionnIUep4BAAHRrtSHvnV9oJrK/00Ax6+5bIqP88tGGjxXDefUHBpvKphJRA0LsVTeXTYaEDz7C56PFQ2KS+WybBFJ2mg/N0JtNCB4BgA4s5CwelJ9vXProrJjApbtQOfgI/DMZJj3zGMPnlc1DS57ifP9y5nE+a52Xy4bPAie/QWIWw/Xs0nA7pLLsiOW955vhOAZABAoX0N1xzjMOW+AeBxZ4OwrgE4mEjzn95lmQ5VmUOoyf4c4YVxVw1jIQ+sJntsHzzE3YLl+zSqGd/kfheAZANDDK8V9m4mNzIRZ1yNPw2t7nveO92uW3nlt96+9dNBn8Tvh2639TS2LCd3DJt99Um7o0JpAbOdwX7MIrnsmGBtTNl9KnBOIPTje38fAr1UqrPEMAIjEGHuhNXqbTwUGjzK+Yc5aeWITUGXNVy+H9vvkqVIw6fIYQx86ehR6nn3T7nnOLSTMuTTOPZfHOuqnyjaCawIAwC9Cm1W66/DQIZZE0jqfIYfazRXPa2rBs0blUHsCsUTifv2gbdkXeoMGwXP34NlHA5bGyArXjbKhThyWShwNGgAA/GZmHzqxBdFHe9xDvFeZSnzvszaltbxZCJV338HzTPm+0nj/0vXog8dAy7yjEDyPPXj20YA1j6D8TQK8BzWuC8EzAEzQqwF+88k+dHy9z+vieK/t8a4GOl6t3uEQ3ke/jizNQs+rb5XzoesGl53j/SUBVmrXEs861OjnveIzYqaQl74p5feQmFEfKVkTADAWpiKQSXjvRO/tcYVQ6dXoHdgElAc0lnsJoQKXyjC9HNrrz7oMThMZ78gDQ/NdWNfnuBJ6nvv2POeNTJr3n+uyW2NUxDKQ66+5GsFKAAAI4EFn3pnyuURTecjnjYTXa6kx5CwL6PwyhfPbBnBeQwXPWg0uWu9fajSchbB0lfYyYgTPYQbPWmWaVuB2I+NswNJeRmzV89gWdh8bm7829s9TWi0CAOBQIi+t1xvFCujR7n8pYc8SqtGYENIw0plSQ8iUg2ftiqPL9y+1Ao39gPlcc4Z8gufwg+eYGrASiecd7Ta2El4DRmLzxbFB2vG6BwAgiErQylY6kgmeewjLU9XRCPSmHDznFbVYJhA7yngC6ET8vIZC8Bx28BxTA9ZWxhNAm3TfeLj/2pbJWaGce7TfTwvl08z+uTj67ij0RAMABq4ETfncQ3zfOadR2Zl68Cyiv/6sq7y0Et0g31cFXnuoNsFzPMGzjwasR0eNQ6noBvm+AkBfDVdty+SskBZZw+8Ul/bMBAAAgufBgudVgOeoETwRPOsHpq7yk/YyW20qraGmM8FzfMGzdmDqcn6HbQTlxLmGQp9LYDY9n2Lg3LYRb04ADQAgeG4fVBA8Ezz3vWbaFWMXPUvas4TngUaicJ2HmOSQ4DmO4NlHw8pNYOXVqZ7yVOH+2w5w/zUpkxMb/FYFzqvCtjwRWM8L++AdaAAAwTPBs1rlcuiKRkjBs/YEVq7ebfQVhG56Bvz5EntDrQxA8BxX8Cyi/x5u5uAY157y7tbB8S4GCprblMl5ei4b5s1tzXMrb1gMbQ1tAADB86jPnZ7n6QbPIvrv47qYnCsVvxXgR1shzc4EfHP5ubTMkBV2gud4g+cYGrC0X584teJFeqL8SOy/r0R3BQ6XZfJMTq/8UMxXswYB8mMgjcIAAILnyQXPTBg2zeBZRH/9WRd560bCCE5D3wie4wqefTRguZhAbMG95aRMztNx2SB4zu1PPLvy4JrZtwFgQK9IgklKOKbJurWbloWDQP/6eTtwqTBC98/bJ+VytG8D1p3d0L+hJL/mbTydyDvF/QIACJ5Rw3UgYR6+IQ39milUCAi+6l12qNC1cSX9ekdM5fE9lwkjdfu8fVbcfyr9JxC7pAzt7Y39767hMzCfNKyu4WJX2i8AgOAZHgPBkIZ+LSJJszF5K/U9HC6spV+DyL2twANj9El0G7BMIJb1+H7egPXEpVKVys93v29sgPyJZAEAgmeEFwi+C+j83kWSZmOi3btrelI20m+Ew63o9tABQ9JuwDLBWN8GLAI5/XI4/+9bD3kCAEDwPAkPCvs0vb1JAOeWiE7P8wPZ5qydhP/+5SfRfUcbGDJwequ4f1cNWIwA6abJO8p5A4W5Rldn9tf1HWoAAMHzZB/Crl0FcG5XkaXZ2JieXc3JgVJx8/7lLfcyRlq2h96ANaYA2uf999AgeC6WwaasXJ0pS4v7BQDgpCkvVeXy/MvbkDN3zhXPKwSpxLE2t+n12Ivusi6Zg+NcS9xL22QS9nJQIR/b0OXmVvk4tfP2jYNjzCK//9aey+TEfm5/Im9uK8rgupFY+b+zzjMADIie53ho9Q6uBzyndWRpNVZm+OilhP3+pdhjvI40ff8Rhp+jXugTiInNv7FOInYp/nvPD/ZZNJfzryYVy+CqyRYX9u9uhXeiAYDgGY18V9rvXNz0SgwRTPlOqzHTnt3axfuXxiqyCrxJ19fCcG00D5609J0BX2ww+Dai/GwC2CEbrq4LaZ+U/m1XSsd8CL/574fC3yfys6H5mlsFANDU1IdtJxL+sNqmMuVzSQK5ZqnEMWy73KiheW22Du+HrYQ9THRVE/wzbDu+58bW0/EulPPkUdwM+515KCv6blWNdUOUyfl9te/wbJrLz+HaS6qBAIBzleOlfQBqPFSXAQVZTcXwXurQgfM+oOsVY/AsHoJSlyMdljYgCKnSvpf6Hj6CZ4Jnn9dBu4w01/kxsPvvUeqHSQ9VJq8LjRdNV5fICmXbWgAAqDCzDwztILFckcgkjkk4Mg/poTmE20dPRRbQ9Yo1eJ55qBBnjo83hMnEjg3Oi+CZ4DmEBqy1Qt45BnD/rc48y4csk5elAH9pj2dWKMdSu99i+UuPMwCgsvI79MO3yYM3hHTykUanes66mHtqEDkGdv1iDZ7za6Z9rVy/857YoOAYcNlB8EzwPMYGrOJz/HGA+6/qneIQy+SkRUNf03MCAHj0RwDBoGlV/RhQ0GMmbPkiL2svhjgpkXlg+1qf+VZeJig59AhmrsRfb/D1AEHmufN3de47u/m0EN2lzA6iM5FPPoLlg/Lxm+vxteU5pA4Dy9se92Zsx9anvAw5r55rwFpEkj5l5v57p3z8B/usvm3xrA6lTM57mc01vrB/Nudg1nC+t/tlVm0AwG8P19DeVWw7BHOoBgff6baR5kPb88BlM8D1Yv1LVFWW87kTXNw3W4lzvgRgqOeVeR6YXlQXPdJ7G/DPSVoAwBCG6HlO7IM0jSSNdvKyhMghoGMylYergX773qbFQ+nvL+y1HapSE1qvM8INppNC+ZP3+lTJe4IONt+z3BTQP5ie2838/99yuiHqu70P895YAAAmxQzhCrm3+VSv5iKgdJxFmo70OgMAAADAGaGvCTn0TNRtZQTNQc6wDQAAAACdmB5B7WU3fG5bCaeXc0zpGsssuAAAAACgEjj7XLPZ59rQIQTQiUx7+PZRmLgJAAAAAIEzAXQDiwkHzwtuMwAAAAAEzgTQTd3I9ALnG24zAAAAALGb0ru4W9Kc95wBAAAAoC16QYdBbz8AAAAARIL3bwmgCZwBAAAA4IREmPk5IYAmcAYAAACAU1hzOJx3cVlbGwAAAAAClBE4/2/LArouY3j/nFm1AQAAAIyC6RGc8nDtquHbIfWSLiK9PkdhHWcAAADASAsbBvKng30sBwwW75+3w/P2UPr7C3l5/3g+UGOCSZNVINf4zqbTOqKbbfe8Xdpri2kp3ze35AOvD+TcwaY9xieTX+fn2NkNAKgXhPl8/ijVHUqXPKvjM0Sv88Y+/GcNjy+z35ly73Ox0hRyL/RRwhr2Dv/KeSIlSbxVTlhLfRrK82GsSBIA1AuCdO71S8rvAbzq+X2fvc6mZeX18/be/v9Tg+882c++t9/11TqT9z6HJk/D64bp58uTPSaf1yg2BJEAAADTkAUaS6BngOijF9MsUeRy+PVc/CzlFGrvc/H6rWTYnuijPQZm0j5fgK4ncq70PA9jJfQ8TwU9zwCoF4SvSf2c8jvCCn3MMy37mIk6i6QRJBO/a0PvpfnQe4g82nRLeEiC4BkEzwAInkdtIdWvrRbrgXMZZm4n9KAdbPkIPLUbAPaRXVNzUy5F5x3xjd13wq3TSjqxSi7BM8EzCJ4BYMr1gvIzOfTRrGgYZI2lx1Y7gI45WExtwLu2Fa7HBuf7aD+7tt8l+HFX0T3ykATBMwieARA8j1q5E2tNNojfUuIcql1Hcwg3L/ujq0TifBXA10NyZh8oplHhkSDgt2D40abNWs63WBM8EzwDsTNDXfNRkSb4YEgrwTPlNIJtERnDMGetYegbsgs6Wkv8rwJoPiS3wuQZTQLhJsEwwTPBMxCzVOKbuBUEz5TTEeq6VNVC6XguB0wLrd9ekM3Qwawm78yFoczFylLZG5KlMg3IMwCm9jyYCb3PABz701EB5cLt83Y/YFrc22PIlAr1HdkNLZxaQ/0D+ak2bYbuZSj32H4aoFw7lTZP3Fr/dVOqVH8V1piP0Vx+f9XrLckySX8F+kwAzxeeLwTPaq141wGkx7VS8Dwn2EFLH078W2bz6mHC6fNk76m09PffBj6uNICK27eKcnpH4PxbmVy8Vt9JkijNhFEV+FnuLWueEwDPFzjTZdj2hcJx3AUSCBzssbh2QVZDCyY4Thp8Zurey8/W3CfboLAiWf6bBteFYPnWphUAjNXOlnOHwp/fCo2GAAIInhOF4/gWUJpoHEtCVkMLH0t/vpPfh/x8JJn+WykycxX88bz9H4HzbwH0/9m0uaQCCWACzLPytS33TOB8T5IAGGvwfBdQmmgcC8Ezmkrl9yG3X+TlnZkiM1wxI7kAAACA6QTPpmUwpF6RJ3HfWknwjKbK7zof5GX42a4iX9L7DAAAAAQcPLt2CDBdDmQNDCCR33uTixPpfSn9G8tWAQAAABMKnh8CTJcHsgYGUO5JNqMgiq8R3MrvozQ+kGwAAABAeMEz6+UBOqreYf5SESyXe5/Nd5IIzi+1W6hlSBL48eXmordcYNvjSAM5llCvk+/0yX8ziTCdQi6XXZQLvvPDUOXtrGMenEXwjJh7Or40wvv41DM1DfjYpvz8mg2U11z+Xtfnh/fns0nsH463VYCZaqVwnjQ84JRlRZ5Jagr9GO6hxfO2ft4ea+6HrT3n8n1R/lx6pgDclrY2Mvud8m8+2jSdtdxP1b72pePLTuynfC7zwnluKva9OZE+dftqWuZtK/LdjT2fHzXnedPhodj3Gt60SN/ibx0rrnlxPzcdKmOn0ufR3g8uK5LzjtdkO2D5MbO/t6853qzldd/XlC1N8n524pqvKsquNuWC7/zQtbxdlbakw702q0mvc2VUYo/5WJM+XcqTNuXBufJnZtOs6hoeHV6/rteubRnvorw5VVbn6bVVyPNt6gV1ea3LsaWl+0P7+dJmH03zeNM0KD4z5o7zx6LiPsrvoaTlvtKa+tC58jk7UR5vxMMEvATP3TbglPKDc33is+uKQigU6YlKwI+aSsiy40My7Xifzc48QIoPkrnj8mLVsoKQndlf5qiyURc8z+zDtE1Zt27R8ND1GnYJBNMW57BtkZfWLdOnb0U3aZh/i9tN4ZoMFTzPG5YNmwb5p835py3y/OxEBSuvoIWUH3yWt1X5Zl4T/Fblvy5l5tFWvDXKg1Plz6LheTXNr3VBs69r5+rZXldWL1ukV5c83/Vcuzy/toWAbtXiueDi+ZKK+xiqSxqU06FP/jhXHiYO95WX0fPSc2evfC8PEjxvAgxkNgTP8GjhIGjMAjiPVc9yYOYpeG5T8T42KEy1gudzD4qtw8rGqqZys+94PY8NK0cxB89Ng8G2DR/nyopjx9/bF1r0fQfPsw6Va9/B875Bfk8Dyg++y9ttxT7aXNN1iwpweZsrlAennqVd7q02le51j2u37nDttILnWc/6ctM83+Vc+z6/FiMIntMez4t8W/bIH+uOx95lX1X1j3mH828Uk/4ZQIU7kfCEeEwYr/JEYWZJqt2Jz5t/O5Ty6ZW8TCg2lPWJB+HBHvO/z9tfUv2eysLTcS4qftsc313h35OKVtvLAdI0q8gXT4Xjv1YOdrYVFcIney3zSRXf2Os5q/n+W3G/9F8I5jXpU5Xf05rKfx5M3LbID3UjUppcl3z4/xBLQ15VpJXJF9+et7/tfTcrVZ4yz2XavCJN7215kMjPJQNDyA8hlLflfdwV8t9Fxb9nNn0WFc+z7/b/q/JCfr7/eHyWVeXT/LzSiuOb2yBj5fDa1d3HmYTzGmDdsPziNb2w55A4KANdlM9Nji9vFLiL+Bl16nlxsPn6oXDf1c2ncmPT6LLjMZTTfWZ/x5SvnzvuK6+z/ceWcVX1tryRaXbi/npXcc4Luzm/9n1aVmN4H1jjve5HAeoL+S6tsZn4b3lucyx562p65nvnWgVPfT+V9r2W5VbyTc0DvdiCea5ClMjPiTeqWm1TaTYxR5Mht3kZdS6P9O15rirDsg7X8vFM+d7lGha16WkqTpBS7pFYl67TuZ6uund20xN5pK6HZt6wnDh2uC6pnO99WXkoI45yujejPFz68UyAlweEy5q8XtxmLfP8o1S/+zgPJD8MVd7W9fbvpX7o5anfq3stpm7ofOq4PKgrf86d16wm7zQZpbTsce0ee1w7F1I539u3OpEGp8qic3m+zbnW5Z9zx3fqnmzS8+zi+dJmH6fqFPOO+SyR+h7eZcf8caz4bnKmfD+V15Y16da1lzuT7q9t9aqsuNgyCUemcH5bAap1fX+5ahjkEK9A1A3HXLb4/t5j8FyugCQnyrmbDg17fSo0p4Y6ivJxnAqem74HVHctbwIJnl18ry6tmr7nvez4fNhKv3fL1wMGz4k0a0ye2X9btth3n/xTFwC1ff/YZ34YsrzddmgcW0q7dx2LeebYohxxHTzvO173RctzanP/nRsiPWTwvG9x36w7pHebc121aAhpGwM0rcu7eDVm2yOfPPYs5+teD5p3yB+Zw7y27HDeTepRVe+EO+/U7fOuRgzvPWu877wW4Hylsm0Bd9OyQqJh5aAyfqpC5zp41p6LwHXwPPN0HCtHDX911zIZSfBcFbzsWx7zjYNKSZcG2fVAwXMqeo3JroPnmw753Wd+GLK83XasGB87pvPaQSNT1+A5aZiOba6Fi/xWdx2GDJ6b9Lg3KYsyB8+zqvuxy/FlEQfPqx6Na0XzluefdmyEarqvJiN4lx3rUUnb++lVh5N6ULgpFxLGe8aJ6Lx7+SBAdQFddtvi+18q/u6j53P4UPrzrsODwrz78n6ga5AGnD/uZJj3U/tcF/Ody4Z5PUZV72O2fRfsuuK6fmhxj3W9X8xxHgJIw7mEu3Tj18DzQ2jlbZP3Au87pvNDRf3Mh9uG90k+z0DRxYnPV81t8qnjfRyS9x2eU58q0viDUvnc5fhuZdg5ZPr4WHGPfu6wn6r8mUq7kTlfHZ5X17KmST3qUPGZxHXwrDX5y1UAmU7rGMY4YQ76mVUUck0f2sUb/q4iSPFVMa2aBORLx30dPD2sypWdTcAB9NCNbl86Bu/3Fdfyw0ju23cV+alt+f5UkT7pmQphuZzo2qhyPUCa7SrKvrbLoPhyH3B+CK283TXMh987pvP9QMHz9x6fPfW+78zRvejrWdk0D+w6fO+p4vxTB9f4XUUe2nXc17XEp6rx4FOP/X3u2cjhMvb51uFZ06Ye1aq8edXxZtGQif4i7+cCgcxT5QGoKuT+leoJIU5tDxUPb18zV6cVD8Q+MxR+8XDMX2sq8luP6TbEg6frg9PVgy6RcaxikHZ4oDfJh/MTz6XZme+20Sfwlp6/Wz4vMwxvPfBzv+/95jM/hFbedi2fQq8PHZTqly6v3ddA0qpPHrprkMf73o9fe+aD2GbbflNxj/bNz3c9rpHLOkxQ5c0rh5nehSHfDdb67Zinuoeeq5q/27bcrhruW8PfjgtKH8HibU1hah4IG/k5YVEIw0qHHLK96/n7VeXeGILncr6oel+16bqwTSqOicJ9MkSjzKea/JTZtNjK8EP7nwLPD6GVt/8Z6bNZo7Lt+tqF0gBx1/N+2zl8Rsykejm8PmJ75bLcSPPNwT6/nfkNX3WYp5ASumvw/F3xwt8MkA43otf6/V2A3ytFmoFEIn6GIs8V8rqPSsF7qR/2ltjy4NwSQGN3r7CP+Qju26ErQy7ujyGeSabi88+JfGXSdi2nl3eaen6ItbyFzrUbemSSxjPiwmEau8jfu8jzmYvj3zVM60kJrefZWHqutGbSbSa6ENIKcfLRM/yRZD5ZkTeTrryV+iFN+bqBWwl3ciNN/3GUzuU0xXQdbABd1wudV8ryZeIANC9fY/z9//CMcGo2st8J1p89HoL3otf6kA+hvvUQOGsOFXfxvgHGJRE/PRb5DPbkv3q75+21TauPNdcltZX5txLYsCEEweWkMlO5Vz/bZ7u5766kehRO/urEJfkBADCG4Nn4ohx4mn2bIRyflPZ/I7o9znkaAUVVvc6vHVSUTENW+b25j4r3j1QEk385alzw7c5uc5tmWUXamvLo/YTy6d8O9jE7k19iU3X8K8+/OQvk2ro4r9tCEF3VeGXuwwfpN3HdmPLDWMrbKRrjtXPx+385fEY81TyDniZ0fzyVnhEunhezhmk9Ka96fNfHGqRLGxC47OHOg4ylh0zMkG2UC6Gs4j46ONh31ZIMmegOrylPppE6eBgP+bAyaZgP5y6XbaGsRe/L3EFen1ekb8yqjj/1/Jsu1khOA0vXO3vPVTX0fSQ/jLa8nZIHhfI1hODZdVn0ENj9+CbyZ5SL2CltmNYEzy2CQx89q3mwu+5ZWCTyc0ISHy+7d10jFeO1rMknrlQtw6S5/JLrin0olfqdrcyHHnRol7uJ42s5hgfuwWHlZNbhHuubD0MOmD5XBNChB3g+88NYy9spOFSkfZ9rF8qyioue+d11A+u94+A3tnukfP7vHOzzTUX9aPJe9fz+Z48BYiYvM+BupHmPWt7Tly9Bk3k61icJd6gZhvOh4oHqsiC6rbgfNScnu6+5T7sKqZfpvuL8konlV5fX8r7mWfFUE+C1CQbP7c+lncM8a55L5xqFnyoq3h9Gco/VlWES0X3nMz+Mubwdu53jwPNDIOfV5ziWDdOpT52kz/0R42izqvXi+zQAVI2W/Mbt3D949tX7XM7Q5gFzlJdeZPPAWZW2jf23o/2s71Y6ep1RVckpF8TXSnmvXPFMlc6pKvi/km4t6gvxMyIkbVEmTP0e/tix8pBW5LlvLQKCpvmgauiidu/2t4r7K+tYHqTyc53j1Yn75mvFvdLlnu56rK7KvyYz18d2z/nMDzGWt/h57cpl002Pa5cGcl5px/r1TH5vvNk5uP+rRt+tOu7rKsJ8VjVJcZ+VC6ryKK+jOjKzQeoPtv9uR2Ead/xuX5FPNCQVeXKjXCnu+3vzE2VIeubBXf78qc8Wr8G2wXGVj6lJJaHN8bv8bt99rWrSf9+yPDOffWxZJpbvjW3D36o65qbHui19r00Fq+r8kp75/bHlPf3Y4brsa67xSrF8WJbSa9Ugbdpc0zZlwLn8s+14jj7zw5Dlbdd7pms6d7m2bY+xT/5pe25DXjtXgXJdnbdtQ8ym5fG3+exjxefbHt+65lyb5t2tgzK26z6q8lmXyZ3b7qfvveRqX13vi1bp/crBDWVaij4Jcp+EHiv8XhCUC2+tERsH+X3oo+bwI/Nb9xW/t25Yuc/XdfXR4DQvXZPlmUp/+ZimOElGfn2SHp89NxLnW8X9kjX4LY2eiyauawLTecOyoCq/X565pz9XBNRNr8vMfnaInsby6ICrM8dxVXHuoT9PfeaHmMpb/H7tDhXXbhv5tcvLl7ThZzfye0P0Tty9wvapJjBqGkStZbgROq7y2a4iEG6Td24qAmViPSVbodd5SzZAhapW1kTx99KK37tR/L261vB8noFZzXfWDe6ptOV5ti2jqoYlLXvc22PreS72Lqxq8m1i07EqDzTpua4bvXRT8Xsze32OPdOrb8/Apiad6t5ZPZXfm/x2Xc/xueuykvMjw1aKZUPVtT1WNFzNatJn1aGsa2rl8PntMz8MVd7S89z/3NIO5auLa6dVr6jK7/OacqA8CqVNz3Xbc113OL6s5vhi63nOy/5jy3x2Lg0WyveSq3156Xl2KZFpD99uO1QL05CImyE0bbUdOtvX4sz98WgLp1ONbJly8HxqyNv+zLE1LYDHEjxvT1RAjoVreRQ3r7BkDfLO/kylzVfF5FQwW5VGPxwdd9Igvc9dl/UAlYTsTGV03yP/hBI8+84PQ5S3BM9uzi1rUJd0fe20gudz9/a2QUDa5Li7fGffIBA+dXx724AbY/B8rr7T9hplygHvpIPnJgX6mLdQlg5AWNYDPOTqHtCZ8m82KazPFc6awXOeLseOxza14FkqKg9Nt7bvSjepVLoKnF09KPMhiF2fGUuFIK1JOg1RSWibj5q+RxlK8DxEfvBd3hI8uzu3zPO10wqe+5xLm3elu57rWvo9v7pe3xCC57xM6jMq+LHFNZpU8PzK8c1lZmGb4hJNn4UZ6FBdcJUbVcz7ajsPv23yo89lq/Jzey3tlrDb2e/cerom5nfeNrwGh+ftvcdjC9Enm16Hhp831928A/qPtH9X9dZ+r+n9kV+fy4HS5sn+/vsW6ZPfm687PiufbBp9avGbB3sNLwfOR03TaWePN7Y5BnznhxjKW5wu69pch1CvXdtyO//Oaw/3+GXLsiR/r7fL8yvUMikv+w8tv5c/x++5XX/3h9J+27ycH7v8QQ9UBc/ziorswdPvz6V60qsnT+duGg7eyK/LZeW//91WGssFc9rieKvSt80D3PzWh9Lx7ez1+d6xkpL2SO/U4bVqu69Efn3t5Knm2ryzaV78fN80q8u7xfyTFI7pvpB/XN0bLu7LqmPO0/5QOGaX93/+e/PCOeXnUpdOGufeRmbzUWKPpXhdv7W8h/uUAU3yfCz5wUd52zXfdE3nLte27TH2fYa4yEP5u6YXLa9duTfureg2zKfye8/rHxXpkdl8WEzb+9Iz4qnDb/d9Np56phTvxycH19dFGav9jCpen3PPDO2y2OW+uuaVoZ+L/zvxrkPLYtq6DE0EAAAAugpl2DYwOX8q7TcfKjDU8hg+3NtzZFkqAAAAVCn3pPUd5UCnDTDyAmOMPdD0OAMAAOCctKIO6XJ/PwY4B3qeMVmvlPef90DvRpRmO6HHGQAAAOcdSn+umo+kjXlFXRvACHVd8iSk7YbLCAAAgBbKyzllPfZVXlZn4+H4U6HnGRjEQrqvbTfkdhTWcQYAAEB75TXAHx0GsZmH4yd4BgaUSL9Fu31vW/l1qnoAAACgqUVF/XLVch8zG3SXO3d8zMFD8AwEIJOwe6GP4qc1DwAAAONWNYHuskXgvHcQgBM8A5Gb2Rs/pCD6aI+J2bQBAADgwlzqRzguTtSTs5p68t7jsRM8AwTRBM0AAADwJpPzrwrm26OcXjI1IXgGkLew+Vwbem9/k6AZAAAAmvpOnrsdoM5K8AxEIJGXd0E2CgHzxu47IZkBAADgkQl+1y3rrqYnOhvoeAmeAeuPiI7V3LjmfZELG/QmDYLfQ2F7eN7un7cdlx0AAAABBNGmJ/qNrdOmhX97svVWs321/x2yDr6NOIYAAAAAAAAAAAAAAAAAAAAAAABx+H8BBgCGtNNPnVmJrQAAAABJRU5ErkJggg==;" vertex="1" parent="1">
          <mxGeometry x="-1276.9199999999998" y="645" width="201.04" height="60" as="geometry" />
        </mxCell>
        <mxCell id="HbIZkuhC3pRowiAG9ARc-110" value="&lt;h1 style=&quot;font-size: 22px&quot;&gt;&lt;font style=&quot;font-size: 22px&quot;&gt;RocketMQ&lt;/font&gt;&lt;/h1&gt;&lt;p&gt;&lt;font style=&quot;font-size: 12px&quot;&gt;可做备选&lt;/font&gt;&lt;/p&gt;" style="text;html=1;strokeColor=none;fillColor=none;spacing=5;spacingTop=-20;whiteSpace=wrap;overflow=hidden;rounded=0;" vertex="1" parent="1">
          <mxGeometry x="-997.01" y="720" width="183.12" height="80" as="geometry" />
        </mxCell>
        <mxCell id="HbIZkuhC3pRowiAG9ARc-111" value="" style="rounded=1;whiteSpace=wrap;html=1;" vertex="1" parent="1">
          <mxGeometry x="-626" y="630" width="420" height="160" as="geometry" />
        </mxCell>
        <mxCell id="HbIZkuhC3pRowiAG9ARc-113" value="&lt;h1 style=&quot;font-size: 22px&quot;&gt;&lt;font style=&quot;font-size: 22px&quot;&gt;&lt;font style=&quot;font-size: 22px&quot;&gt;审计系&lt;/font&gt;统&lt;/font&gt;&lt;/h1&gt;&lt;p style=&quot;font-size: 22px&quot;&gt;&lt;br&gt;&lt;/p&gt;" style="text;html=1;strokeColor=none;fillColor=none;spacing=5;spacingTop=-20;whiteSpace=wrap;overflow=hidden;rounded=0;" vertex="1" parent="1">
          <mxGeometry x="-612.25" y="650" width="110" height="40" as="geometry" />
        </mxCell>
        <mxCell id="HbIZkuhC3pRowiAG9ARc-119" value="Process Bar" style="swimlane;childLayout=stackLayout;horizontal=1;fillColor=none;horizontalStack=1;resizeParent=1;resizeParentMax=0;resizeLast=0;collapsible=0;strokeColor=none;stackBorder=10;stackSpacing=-12;resizable=1;align=center;points=[];fontColor=#000000;" vertex="1" parent="1">
          <mxGeometry x="-606" y="670" width="384" height="100" as="geometry" />
        </mxCell>
        <mxCell id="HbIZkuhC3pRowiAG9ARc-120" value="解析" style="shape=step;perimeter=stepPerimeter;fixedSize=1;points=[];" vertex="1" parent="HbIZkuhC3pRowiAG9ARc-119">
          <mxGeometry x="10" y="33" width="100" height="57" as="geometry" />
        </mxCell>
        <mxCell id="HbIZkuhC3pRowiAG9ARc-121" value="统计" style="shape=step;perimeter=stepPerimeter;fixedSize=1;points=[];" vertex="1" parent="HbIZkuhC3pRowiAG9ARc-119">
          <mxGeometry x="98" y="33" width="100" height="57" as="geometry" />
        </mxCell>
        <mxCell id="HbIZkuhC3pRowiAG9ARc-122" value="报警" style="shape=step;perimeter=stepPerimeter;fixedSize=1;points=[];" vertex="1" parent="HbIZkuhC3pRowiAG9ARc-119">
          <mxGeometry x="186" y="33" width="100" height="57" as="geometry" />
        </mxCell>
        <mxCell id="HbIZkuhC3pRowiAG9ARc-123" value="存储" style="shape=step;perimeter=stepPerimeter;fixedSize=1;points=[];" vertex="1" parent="HbIZkuhC3pRowiAG9ARc-119">
          <mxGeometry x="274" y="33" width="100" height="57" as="geometry" />
        </mxCell>
        <mxCell id="HbIZkuhC3pRowiAG9ARc-127" value="" style="shape=image;html=1;verticalAlign=top;verticalLabelPosition=bottom;labelBackgroundColor=#ffffff;imageAspect=0;aspect=fixed;image=https://cdn4.iconfinder.com/data/icons/logos-brands-5/24/elasticsearch-128.png;strokeWidth=8;" vertex="1" parent="1">
          <mxGeometry x="-587.13" y="1455" width="50" height="50" as="geometry" />
        </mxCell>
        <mxCell id="HbIZkuhC3pRowiAG9ARc-131" value="&lt;h1&gt;Elasticsearch&lt;/h1&gt;&lt;p&gt;存储应用系统过滤后的日志&lt;/p&gt;" style="text;html=1;strokeColor=none;fillColor=none;spacing=5;spacingTop=-20;whiteSpace=wrap;overflow=hidden;rounded=0;" vertex="1" parent="1">
          <mxGeometry x="-484.37" y="1450" width="185.62" height="80" as="geometry" />
        </mxCell>
        <mxCell id="HbIZkuhC3pRowiAG9ARc-145" value="" style="shape=image;html=1;verticalAlign=top;verticalLabelPosition=bottom;labelBackgroundColor=#ffffff;imageAspect=0;aspect=fixed;image=https://cdn4.iconfinder.com/data/icons/logos-brands-5/24/kibana-128.png;strokeWidth=1;" vertex="1" parent="1">
          <mxGeometry x="-1237.67" y="1456" width="54" height="54" as="geometry" />
        </mxCell>
        <mxCell id="HbIZkuhC3pRowiAG9ARc-146" value="&lt;h1&gt;Kibana&amp;nbsp;&lt;/h1&gt;&lt;p&gt;日志查询基于kibana&lt;/p&gt;" style="text;html=1;strokeColor=none;fillColor=none;spacing=5;spacingTop=-20;whiteSpace=wrap;overflow=hidden;rounded=0;" vertex="1" parent="1">
          <mxGeometry x="-1126.92" y="1455" width="172.1" height="90" as="geometry" />
        </mxCell>
        <mxCell id="HbIZkuhC3pRowiAG9ARc-149" value="" style="shape=image;html=1;verticalAlign=top;verticalLabelPosition=bottom;labelBackgroundColor=#ffffff;imageAspect=0;aspect=fixed;image=https://cdn4.iconfinder.com/data/icons/logos-brands-5/24/nginx-128.png;strokeWidth=1;" vertex="1" parent="1">
          <mxGeometry x="-1846.25" y="1465" width="70" height="70" as="geometry" />
        </mxCell>
        <mxCell id="HbIZkuhC3pRowiAG9ARc-150" value="&lt;h1&gt;Nginx&lt;/h1&gt;&lt;p&gt;免费的 ELK 没有安全机制&lt;/p&gt;&lt;p&gt;nginx做反向代理&lt;/p&gt;&lt;p&gt;提高安全性、负载均衡、访问性&lt;/p&gt;" style="text;html=1;strokeColor=none;fillColor=none;spacing=5;spacingTop=-20;whiteSpace=wrap;overflow=hidden;rounded=0;" vertex="1" parent="1">
          <mxGeometry x="-1728.75" y="1445" width="206.25" height="120" as="geometry" />
        </mxCell>
        <mxCell id="HbIZkuhC3pRowiAG9ARc-167" value="" style="outlineConnect=0;fontColor=#232F3E;gradientColor=none;fillColor=#232F3E;strokeColor=none;dashed=0;verticalLabelPosition=bottom;verticalAlign=top;align=center;html=1;fontSize=12;fontStyle=0;aspect=fixed;pointerEvents=1;shape=mxgraph.aws4.user;" vertex="1" parent="1">
          <mxGeometry x="-2180" y="1466" width="78" height="78" as="geometry" />
        </mxCell>
        <mxCell id="HbIZkuhC3pRowiAG9ARc-168" value="" style="shape=singleArrow;whiteSpace=wrap;html=1;strokeWidth=1;" vertex="1" parent="1">
          <mxGeometry x="-2030" y="1460" width="100" height="60" as="geometry" />
        </mxCell>
        <mxCell id="HbIZkuhC3pRowiAG9ARc-169" value="" style="shape=singleArrow;whiteSpace=wrap;html=1;strokeWidth=1;" vertex="1" parent="1">
          <mxGeometry x="-1423.75" y="1460" width="100" height="60" as="geometry" />
        </mxCell>
        <mxCell id="HbIZkuhC3pRowiAG9ARc-170" value="&lt;h1&gt;日志查询&lt;/h1&gt;&lt;p&gt;报警后的日志查询&lt;/p&gt;&lt;p&gt;不需要借助任何应用服务&lt;/p&gt;" style="text;html=1;strokeColor=none;fillColor=none;spacing=5;spacingTop=-20;whiteSpace=wrap;overflow=hidden;rounded=0;" vertex="1" parent="1">
          <mxGeometry x="-2200" y="1350" width="180" height="100" as="geometry" />
        </mxCell>
        <mxCell id="HbIZkuhC3pRowiAG9ARc-187" value="" style="shape=singleArrow;whiteSpace=wrap;html=1;strokeWidth=1;" vertex="1" parent="1">
          <mxGeometry x="-800" y="1460" width="100" height="60" as="geometry" />
        </mxCell>
        <mxCell id="HbIZkuhC3pRowiAG9ARc-188" value="" style="shape=singleArrow;direction=south;whiteSpace=wrap;html=1;strokeWidth=1;" vertex="1" parent="1">
          <mxGeometry x="-572.4399999999999" y="1220" width="60" height="100" as="geometry" />
        </mxCell>
        <mxCell id="HbIZkuhC3pRowiAG9ARc-190" value="" style="shape=singleArrow;direction=south;whiteSpace=wrap;html=1;strokeWidth=1;" vertex="1" parent="1">
          <mxGeometry x="-437.07" y="1220" width="60" height="100" as="geometry" />
        </mxCell>
        <mxCell id="HbIZkuhC3pRowiAG9ARc-191" value="" style="shape=singleArrow;direction=south;whiteSpace=wrap;html=1;strokeWidth=1;" vertex="1" parent="1">
          <mxGeometry x="-321.82" y="1220" width="60" height="100" as="geometry" />
        </mxCell>
        <mxCell id="HbIZkuhC3pRowiAG9ARc-208" value="" style="shape=flexArrow;endArrow=classic;html=1;" edge="1" parent="1">
          <mxGeometry width="50" height="50" relative="1" as="geometry">
            <mxPoint x="-1600" y="326" as="sourcePoint" />
            <mxPoint x="-1360" y="571" as="targetPoint" />
          </mxGeometry>
        </mxCell>
        <mxCell id="HbIZkuhC3pRowiAG9ARc-215" value="&lt;h1&gt;Filebeat&amp;nbsp; 收集方式&lt;br&gt;&lt;/h1&gt;&lt;p&gt;&lt;font face=&quot;Verdana&quot;&gt;在server上安装&lt;br&gt;指定日志目录或文件&lt;/font&gt;&lt;/p&gt;&lt;p&gt;&lt;font face=&quot;Verdana&quot;&gt;发送到Logstash解析 或 发到ES&lt;/font&gt;&lt;/p&gt;" style="text;html=1;strokeColor=none;fillColor=none;spacing=5;spacingTop=-20;whiteSpace=wrap;overflow=hidden;rounded=0;" vertex="1" parent="1">
          <mxGeometry x="-2146.87" y="622" width="230.62" height="120" as="geometry" />
        </mxCell>
        <mxCell id="HbIZkuhC3pRowiAG9ARc-222" value="" style="outlineConnect=0;fontColor=#232F3E;gradientColor=none;fillColor=#232F3E;strokeColor=none;dashed=0;verticalLabelPosition=bottom;verticalAlign=top;align=center;html=1;fontSize=12;fontStyle=0;aspect=fixed;pointerEvents=1;shape=mxgraph.aws4.traditional_server;" vertex="1" parent="1">
          <mxGeometry x="-1845.37" y="552" width="45" height="78" as="geometry" />
        </mxCell>
        <mxCell id="HbIZkuhC3pRowiAG9ARc-223" value="" style="edgeStyle=orthogonalEdgeStyle;rounded=0;orthogonalLoop=1;jettySize=auto;html=1;" edge="1" parent="1" source="HbIZkuhC3pRowiAG9ARc-224" target="HbIZkuhC3pRowiAG9ARc-225">
          <mxGeometry relative="1" as="geometry" />
        </mxCell>
        <mxCell id="HbIZkuhC3pRowiAG9ARc-224" value="" style="outlineConnect=0;fontColor=#232F3E;gradientColor=none;fillColor=#232F3E;strokeColor=none;dashed=0;verticalLabelPosition=bottom;verticalAlign=top;align=center;html=1;fontSize=12;fontStyle=0;aspect=fixed;pointerEvents=1;shape=mxgraph.aws4.traditional_server;" vertex="1" parent="1">
          <mxGeometry x="-1845.37" y="732" width="45" height="78" as="geometry" />
        </mxCell>
        <mxCell id="HbIZkuhC3pRowiAG9ARc-225" value="Filebeat" style="rounded=1;whiteSpace=wrap;html=1;fillColor=#dae8fc;strokeColor=#6c8ebf;" vertex="1" parent="1">
          <mxGeometry x="-1770" y="751" width="72.5" height="40" as="geometry" />
        </mxCell>
        <mxCell id="HbIZkuhC3pRowiAG9ARc-226" value="Filebeat" style="rounded=1;whiteSpace=wrap;html=1;fillColor=#dae8fc;strokeColor=#6c8ebf;" vertex="1" parent="1">
          <mxGeometry x="-1770" y="571" width="72.5" height="40" as="geometry" />
        </mxCell>
        <mxCell id="HbIZkuhC3pRowiAG9ARc-227" value="Filebeat" style="rounded=1;whiteSpace=wrap;html=1;fillColor=#dae8fc;strokeColor=#6c8ebf;" vertex="1" parent="1">
          <mxGeometry x="-1770" y="662" width="72.5" height="40" as="geometry" />
        </mxCell>
        <mxCell id="HbIZkuhC3pRowiAG9ARc-228" value="" style="edgeStyle=orthogonalEdgeStyle;rounded=0;orthogonalLoop=1;jettySize=auto;html=1;" edge="1" parent="1" source="HbIZkuhC3pRowiAG9ARc-229" target="HbIZkuhC3pRowiAG9ARc-226">
          <mxGeometry relative="1" as="geometry" />
        </mxCell>
        <mxCell id="HbIZkuhC3pRowiAG9ARc-229" value="" style="outlineConnect=0;fontColor=#232F3E;gradientColor=none;fillColor=#232F3E;strokeColor=none;dashed=0;verticalLabelPosition=bottom;verticalAlign=top;align=center;html=1;fontSize=12;fontStyle=0;aspect=fixed;pointerEvents=1;shape=mxgraph.aws4.traditional_server;" vertex="1" parent="1">
          <mxGeometry x="-1845.37" y="552" width="45" height="78" as="geometry" />
        </mxCell>
        <mxCell id="HbIZkuhC3pRowiAG9ARc-230" value="" style="edgeStyle=orthogonalEdgeStyle;rounded=0;orthogonalLoop=1;jettySize=auto;html=1;" edge="1" parent="1" source="HbIZkuhC3pRowiAG9ARc-231" target="HbIZkuhC3pRowiAG9ARc-227">
          <mxGeometry relative="1" as="geometry" />
        </mxCell>
        <mxCell id="HbIZkuhC3pRowiAG9ARc-231" value="" style="outlineConnect=0;fontColor=#232F3E;gradientColor=none;fillColor=#232F3E;strokeColor=none;dashed=0;verticalLabelPosition=bottom;verticalAlign=top;align=center;html=1;fontSize=12;fontStyle=0;aspect=fixed;pointerEvents=1;shape=mxgraph.aws4.traditional_server;" vertex="1" parent="1">
          <mxGeometry x="-1845.37" y="643" width="45" height="78" as="geometry" />
        </mxCell>
        <mxCell id="HbIZkuhC3pRowiAG9ARc-232" value="" style="shape=flexArrow;endArrow=classic;html=1;" edge="1" parent="1">
          <mxGeometry width="50" height="50" relative="1" as="geometry">
            <mxPoint x="-1600" y="718.33" as="sourcePoint" />
            <mxPoint x="-1370" y="718.33" as="targetPoint" />
          </mxGeometry>
        </mxCell>
        <mxCell id="HbIZkuhC3pRowiAG9ARc-233" value="&lt;blockquote style=&quot;margin: 0 0 0 40px ; border: none ; padding: 0px&quot;&gt;&lt;h1&gt;Beats&amp;nbsp; 收集方式&lt;/h1&gt;&lt;/blockquote&gt;&lt;div&gt;&lt;ul&gt;&lt;li&gt;Packetbeat（搜集网络流量数据）；&lt;br&gt;&lt;/li&gt;&lt;li&gt;&lt;span&gt;Topbeat（搜集系统、进程和文件系统级别的 CPU 和内存使用情况等数据）；&lt;/span&gt;&lt;/li&gt;&lt;li&gt;&lt;span&gt;Filebeat（搜集文件数据）；&lt;/span&gt;&lt;/li&gt;&lt;li&gt;&lt;span&gt;Winlogbeat（搜集 Windows 事件日志数据）。&lt;/span&gt;&lt;/li&gt;&lt;/ul&gt;&lt;/div&gt;" style="text;html=1;strokeColor=none;fillColor=none;spacing=5;spacingTop=-20;whiteSpace=wrap;overflow=hidden;rounded=0;" vertex="1" parent="1">
          <mxGeometry x="-2180" y="940" width="295.37" height="140" as="geometry" />
        </mxCell>
        <mxCell id="HbIZkuhC3pRowiAG9ARc-246" value="" style="edgeStyle=orthogonalEdgeStyle;rounded=0;orthogonalLoop=1;jettySize=auto;html=1;" edge="1" parent="1" source="HbIZkuhC3pRowiAG9ARc-238" target="HbIZkuhC3pRowiAG9ARc-240">
          <mxGeometry relative="1" as="geometry" />
        </mxCell>
        <mxCell id="HbIZkuhC3pRowiAG9ARc-247" value="" style="edgeStyle=orthogonalEdgeStyle;rounded=0;orthogonalLoop=1;jettySize=auto;html=1;entryX=0;entryY=0.5;entryDx=0;entryDy=0;" edge="1" parent="1" source="HbIZkuhC3pRowiAG9ARc-238" target="HbIZkuhC3pRowiAG9ARc-241">
          <mxGeometry relative="1" as="geometry" />
        </mxCell>
        <mxCell id="HbIZkuhC3pRowiAG9ARc-248" style="edgeStyle=orthogonalEdgeStyle;rounded=0;orthogonalLoop=1;jettySize=auto;html=1;entryX=0;entryY=0.5;entryDx=0;entryDy=0;" edge="1" parent="1" source="HbIZkuhC3pRowiAG9ARc-238" target="HbIZkuhC3pRowiAG9ARc-242">
          <mxGeometry relative="1" as="geometry">
            <Array as="points">
              <mxPoint x="-1780" y="1006" />
              <mxPoint x="-1780" y="1080" />
            </Array>
          </mxGeometry>
        </mxCell>
        <mxCell id="HbIZkuhC3pRowiAG9ARc-249" style="edgeStyle=orthogonalEdgeStyle;rounded=0;orthogonalLoop=1;jettySize=auto;html=1;entryX=0;entryY=0.5;entryDx=0;entryDy=0;" edge="1" parent="1" source="HbIZkuhC3pRowiAG9ARc-238" target="HbIZkuhC3pRowiAG9ARc-239">
          <mxGeometry relative="1" as="geometry">
            <Array as="points">
              <mxPoint x="-1780" y="1006" />
              <mxPoint x="-1780" y="920" />
            </Array>
          </mxGeometry>
        </mxCell>
        <mxCell id="HbIZkuhC3pRowiAG9ARc-238" value="" style="outlineConnect=0;fontColor=#232F3E;gradientColor=none;fillColor=#232F3E;strokeColor=none;dashed=0;verticalLabelPosition=bottom;verticalAlign=top;align=center;html=1;fontSize=12;fontStyle=0;aspect=fixed;pointerEvents=1;shape=mxgraph.aws4.traditional_server;" vertex="1" parent="1">
          <mxGeometry x="-1845.3700000000001" y="967" width="45" height="78" as="geometry" />
        </mxCell>
        <mxCell id="HbIZkuhC3pRowiAG9ARc-239" value="Packetbeat" style="rounded=1;whiteSpace=wrap;html=1;fillColor=#dae8fc;strokeColor=#6c8ebf;" vertex="1" parent="1">
          <mxGeometry x="-1770" y="900" width="72.5" height="40" as="geometry" />
        </mxCell>
        <mxCell id="HbIZkuhC3pRowiAG9ARc-241" value="Filebeat" style="rounded=1;whiteSpace=wrap;html=1;fillColor=#dae8fc;strokeColor=#6c8ebf;" vertex="1" parent="1">
          <mxGeometry x="-1768.49" y="1005" width="72.5" height="40" as="geometry" />
        </mxCell>
        <mxCell id="HbIZkuhC3pRowiAG9ARc-240" value="Topbeat" style="rounded=1;whiteSpace=wrap;html=1;fillColor=#dae8fc;strokeColor=#6c8ebf;" vertex="1" parent="1">
          <mxGeometry x="-1768.49" y="955" width="72.5" height="40" as="geometry" />
        </mxCell>
        <mxCell id="HbIZkuhC3pRowiAG9ARc-242" value="&lt;span style=&quot;text-align: left&quot;&gt;Winlogbeat&lt;/span&gt;" style="rounded=1;whiteSpace=wrap;html=1;fillColor=#dae8fc;strokeColor=#6c8ebf;" vertex="1" parent="1">
          <mxGeometry x="-1768.49" y="1060" width="72.5" height="40" as="geometry" />
        </mxCell>
        <mxCell id="HbIZkuhC3pRowiAG9ARc-250" value="" style="shape=flexArrow;endArrow=classic;html=1;" edge="1" parent="1">
          <mxGeometry width="50" height="50" relative="1" as="geometry">
            <mxPoint x="-1600" y="1045" as="sourcePoint" />
            <mxPoint x="-1354" y="845" as="targetPoint" />
          </mxGeometry>
        </mxCell>
        <mxCell id="HbIZkuhC3pRowiAG9ARc-255" value="" style="shape=singleArrow;whiteSpace=wrap;html=1;strokeWidth=1;" vertex="1" parent="1">
          <mxGeometry x="-800" y="680" width="100" height="60" as="geometry" />
        </mxCell>
        <mxCell id="HbIZkuhC3pRowiAG9ARc-258" value="异步写入到ES中" style="shape=process;whiteSpace=wrap;html=1;backgroundOutline=1;strokeWidth=1;fillColor=#fff2cc;strokeColor=#d6b656;" vertex="1" parent="1">
          <mxGeometry x="-613.32" y="1012.5" width="170" height="100" as="geometry" />
        </mxCell>
        <mxCell id="HbIZkuhC3pRowiAG9ARc-259" value="基于日志收集到ES中" style="shape=process;whiteSpace=wrap;html=1;backgroundOutline=1;strokeWidth=1;fillColor=#fff2cc;strokeColor=#d6b656;" vertex="1" parent="1">
          <mxGeometry x="-374.76" y="1012.5" width="170" height="100" as="geometry" />
        </mxCell>
        <mxCell id="HbIZkuhC3pRowiAG9ARc-260" value="" style="shape=singleArrow;direction=south;whiteSpace=wrap;html=1;strokeWidth=1;" vertex="1" parent="1">
          <mxGeometry x="-553.31" y="820" width="60" height="100" as="geometry" />
        </mxCell>
        <mxCell id="HbIZkuhC3pRowiAG9ARc-261" value="" style="shape=singleArrow;direction=south;whiteSpace=wrap;html=1;strokeWidth=1;" vertex="1" parent="1">
          <mxGeometry x="-417.94" y="820" width="60" height="100" as="geometry" />
        </mxCell>
        <mxCell id="HbIZkuhC3pRowiAG9ARc-262" value="" style="shape=singleArrow;direction=south;whiteSpace=wrap;html=1;strokeWidth=1;" vertex="1" parent="1">
          <mxGeometry x="-302.69" y="820" width="60" height="100" as="geometry" />
        </mxCell>
      </root>
    </mxGraphModel>
  </diagram>
</mxfile>
